<svg width="50" height="50" viewBox="0 0 50 50" fill="none" xmlns="http://www.w3.org/2000/svg">
<path d="M39.5 8.30002H37.45V4.15002H33.25V8.30002H16.65V4.15002H12.5V8.30002H10.4C9.26667 8.30002 8.29167 8.70836 7.475 9.52502C6.65833 10.3417 6.25 11.3334 6.25 12.5V41.6C6.25 42.7334 6.65 43.7084 7.45 44.525C8.25 45.3417 9.23333 45.75 10.4 45.75H39.5C40.6667 45.75 41.65 45.3417 42.45 44.525C43.25 43.7084 43.65 42.7334 43.65 41.6V12.5C43.65 11.3334 43.2417 10.3417 42.425 9.52502C41.6083 8.70836 40.6333 8.30002 39.5 8.30002ZM39.5 41.6H10.4V18.7H39.5V41.6ZM14.55 22.85H24.95V33.25H14.55V22.85Z" fill="white"/>
<path d="M39.5 8.30002H37.45V4.15002H33.25V8.30002H16.65V4.15002H12.5V8.30002H10.4C9.26667 8.30002 8.29167 8.70836 7.475 9.52502C6.65833 10.3417 6.25 11.3334 6.25 12.5V41.6C6.25 42.7334 6.65 43.7084 7.45 44.525C8.25 45.3417 9.23333 45.75 10.4 45.75H39.5C40.6667 45.75 41.65 45.3417 42.45 44.525C43.25 43.7084 43.65 42.7334 43.65 41.6V12.5C43.65 11.3334 43.2417 10.3417 42.425 9.52502C41.6083 8.70836 40.6333 8.30002 39.5 8.30002ZM39.5 41.6H10.4V18.7H39.5V41.6ZM14.55 22.85H24.95V33.25H14.55V22.85Z" fill="white"/>
</svg>
