<svg width="50" height="50" viewBox="0 0 50 50" fill="none" xmlns="http://www.w3.org/2000/svg">
<path d="M21.3541 8.85421C22.2171 8.85421 22.9166 9.55376 22.9166 10.4167V27.0834H39.5833C40.3743 27.0834 41.0281 27.6712 41.1315 28.4338L41.1458 28.6459C41.1458 39.0012 32.7512 46.3542 22.3958 46.3542C12.0405 46.3542 3.64581 37.9595 3.64581 27.6042C3.64581 17.2489 10.9988 8.85421 21.3541 8.85421ZM19.7916 12.0563L19.3564 12.1057C11.6704 13.0866 6.77081 19.6516 6.77081 27.6042C6.77081 36.2337 13.7664 43.2292 22.3958 43.2292C30.3484 43.2292 36.9134 38.3296 37.8943 30.6436L37.9416 30.2084H21.3541C20.5631 30.2084 19.9094 29.6206 19.8059 28.8579L19.7916 28.6459V12.0563ZM27.6041 3.64587C37.9595 3.64587 46.3541 12.0405 46.3541 22.3959C46.3541 23.2588 45.6546 23.9584 44.7916 23.9584H27.6041C26.7412 23.9584 26.0416 23.2588 26.0416 22.3959V5.20837C26.0416 4.34543 26.7412 3.64587 27.6041 3.64587ZM29.1666 6.84796V20.8334H43.15L43.1026 20.3982C42.2052 13.3662 36.6338 7.79479 29.6019 6.89739L29.1666 6.84796Z" fill="white"/>
<path d="M21.3541 8.85421C22.2171 8.85421 22.9166 9.55376 22.9166 10.4167V27.0834H39.5833C40.3743 27.0834 41.0281 27.6712 41.1315 28.4338L41.1458 28.6459C41.1458 39.0012 32.7512 46.3542 22.3958 46.3542C12.0405 46.3542 3.64581 37.9595 3.64581 27.6042C3.64581 17.2489 10.9988 8.85421 21.3541 8.85421ZM19.7916 12.0563L19.3564 12.1057C11.6704 13.0866 6.77081 19.6516 6.77081 27.6042C6.77081 36.2337 13.7664 43.2292 22.3958 43.2292C30.3484 43.2292 36.9134 38.3296 37.8943 30.6436L37.9416 30.2084H21.3541C20.5631 30.2084 19.9094 29.6206 19.8059 28.8579L19.7916 28.6459V12.0563ZM27.6041 3.64587C37.9595 3.64587 46.3541 12.0405 46.3541 22.3959C46.3541 23.2588 45.6546 23.9584 44.7916 23.9584H27.6041C26.7412 23.9584 26.0416 23.2588 26.0416 22.3959V5.20837C26.0416 4.34543 26.7412 3.64587 27.6041 3.64587ZM29.1666 6.84796V20.8334H43.15L43.1026 20.3982C42.2052 13.3662 36.6338 7.79479 29.6019 6.89739L29.1666 6.84796Z" fill="white"/>
</svg>
