<svg width="37" height="70" viewBox="0 0 37 70" fill="none" xmlns="http://www.w3.org/2000/svg">
<path d="M14.3375 69.75V61.4187C10.9146 60.6437 7.9599 59.1583 5.47344 56.9625C2.98698 54.7667 1.1625 51.6667 0 47.6625L7.16875 44.7562C8.1375 47.8562 9.57448 50.2135 11.4797 51.8281C13.3849 53.4427 15.8875 54.25 18.9875 54.25C21.6354 54.25 23.8797 53.6526 25.7203 52.4578C27.5609 51.263 28.4813 49.4062 28.4813 46.8875C28.4813 44.6271 27.7708 42.8349 26.35 41.5109C24.9292 40.187 21.6354 38.6854 16.4688 37.0062C10.9146 35.2625 7.10417 33.1797 5.0375 30.7578C2.97083 28.3359 1.9375 25.3812 1.9375 21.8937C1.9375 17.6958 3.29375 14.4344 6.00625 12.1094C8.71875 9.78437 11.4958 8.46042 14.3375 8.1375V0H22.0875V8.1375C25.3167 8.65417 27.9807 9.83281 30.0797 11.6734C32.1786 13.5141 33.7125 15.7583 34.6813 18.4062L27.5125 21.5062C26.7375 19.4396 25.6396 17.8896 24.2188 16.8562C22.7979 15.8229 20.8604 15.3062 18.4062 15.3062C15.5646 15.3062 13.401 15.9359 11.9156 17.1953C10.4302 18.4547 9.6875 20.0208 9.6875 21.8937C9.6875 24.025 10.6563 25.7042 12.5938 26.9312C14.5313 28.1583 17.8896 29.45 22.6688 30.8062C27.125 32.0979 30.4995 34.1484 32.7922 36.9578C35.0849 39.7672 36.2313 43.0125 36.2313 46.6937C36.2313 51.2792 34.875 54.7667 32.1625 57.1562C29.45 59.5458 26.0917 61.0312 22.0875 61.6125V69.75H14.3375Z" fill="#253A45"/>
</svg>
