<svg width="50" height="50" viewBox="0 0 50 50" fill="none" xmlns="http://www.w3.org/2000/svg">
<path fill-rule="evenodd" clip-rule="evenodd" d="M45.3125 35.9375H32.8125V45.3125H37.5C39.5719 45.3125 41.5594 44.4891 43.025 43.025C44.4891 41.5594 45.3125 39.5719 45.3125 37.5V35.9375ZM29.6875 45.3125H20.3125V35.9375H29.6875V45.3125ZM4.6875 35.9375V37.5C4.6875 39.5719 5.51094 41.5594 6.975 43.025C8.44063 44.4891 10.4281 45.3125 12.5 45.3125H17.1875V35.9375H4.6875ZM17.1875 26.5625V32.8125H4.6875V26.5625H17.1875ZM29.6875 26.5625V32.8125H20.3125V26.5625H29.6875ZM45.3125 26.5625V32.8125H32.8125V26.5625H45.3125ZM17.1875 23.4375H4.6875V17.1875H17.1875V23.4375ZM29.6875 23.4375H20.3125V17.1875H29.6875V23.4375ZM45.3125 23.4375H32.8125V17.1875H45.3125V23.4375ZM4.6875 14.0625H45.3125V12.5C45.3125 10.4281 44.4891 8.44063 43.025 6.975C41.5594 5.51094 39.5719 4.6875 37.5 4.6875C30.5641 4.6875 19.4359 4.6875 12.5 4.6875C10.4281 4.6875 8.44063 5.51094 6.975 6.975C5.51094 8.44063 4.6875 10.4281 4.6875 12.5V14.0625Z" fill="white"/>
<path fill-rule="evenodd" clip-rule="evenodd" d="M45.3125 35.9375H32.8125V45.3125H37.5C39.5719 45.3125 41.5594 44.4891 43.025 43.025C44.4891 41.5594 45.3125 39.5719 45.3125 37.5V35.9375ZM29.6875 45.3125H20.3125V35.9375H29.6875V45.3125ZM4.6875 35.9375V37.5C4.6875 39.5719 5.51094 41.5594 6.975 43.025C8.44063 44.4891 10.4281 45.3125 12.5 45.3125H17.1875V35.9375H4.6875ZM17.1875 26.5625V32.8125H4.6875V26.5625H17.1875ZM29.6875 26.5625V32.8125H20.3125V26.5625H29.6875ZM45.3125 26.5625V32.8125H32.8125V26.5625H45.3125ZM17.1875 23.4375H4.6875V17.1875H17.1875V23.4375ZM29.6875 23.4375H20.3125V17.1875H29.6875V23.4375ZM45.3125 23.4375H32.8125V17.1875H45.3125V23.4375ZM4.6875 14.0625H45.3125V12.5C45.3125 10.4281 44.4891 8.44063 43.025 6.975C41.5594 5.51094 39.5719 4.6875 37.5 4.6875C30.5641 4.6875 19.4359 4.6875 12.5 4.6875C10.4281 4.6875 8.44063 5.51094 6.975 6.975C5.51094 8.44063 4.6875 10.4281 4.6875 12.5V14.0625Z" fill="white"/>
</svg>
