<svg width="42" height="46" viewBox="0 0 42 46" fill="none" xmlns="http://www.w3.org/2000/svg">
<path fill-rule="evenodd" clip-rule="evenodd" d="M4.55735 21.6225C4.22921 22.4146 4.16667 22.8194 4.16667 22.9167V39.5871C4.16667 40.7352 5.09692 41.6667 6.25 41.6667H12.5V29.1667C12.5 26.8654 14.3655 25 16.6667 25H25C27.3012 25 29.1667 26.8654 29.1667 29.1667V41.6667H35.4167C36.5698 41.6667 37.5 40.7352 37.5 39.5871V22.9167C37.5 22.8194 37.4375 22.4146 37.1094 21.6225C36.8046 20.8867 36.3423 19.9846 35.739 18.9635C34.5342 16.9246 32.8437 14.5416 30.9517 12.2712C29.0552 9.99558 27.0081 7.89519 25.1046 6.38446C24.1531 5.62925 23.2783 5.05433 22.5115 4.67583C21.7271 4.28879 21.1752 4.16667 20.8333 4.16667C20.4915 4.16667 19.9396 4.28879 19.1552 4.67583C18.3883 5.05433 17.5135 5.62925 16.562 6.38446C14.6585 7.89519 12.6114 9.99558 10.715 12.2712C8.82302 14.5416 7.13252 16.9246 5.92771 18.9635C5.32433 19.9846 4.86219 20.8867 4.55735 21.6225ZM17.3112 0.939396C18.4069 0.398708 19.6127 0 20.8333 0C22.054 0 23.2598 0.398708 24.3554 0.939396C25.4683 1.48863 26.5956 2.24835 27.6948 3.12075C29.8929 4.86523 32.1427 7.19192 34.1525 9.60379C36.1669 12.0209 37.9919 14.5858 39.3262 16.8438C39.9923 17.9711 40.5556 19.0546 40.9587 20.0279C41.3385 20.9448 41.6667 21.9723 41.6667 22.9167V39.5871C41.6667 43.0415 38.866 45.8333 35.4167 45.8333H29.1667C26.8654 45.8333 25 43.9679 25 41.6667V29.1667H16.6667V41.6667C16.6667 43.9679 14.8012 45.8333 12.5 45.8333H6.25C2.80071 45.8333 0 43.0415 0 39.5871V22.9167C0 21.9723 0.328083 20.9448 0.707958 20.0279C1.11112 19.0546 1.67435 17.9711 2.34052 16.8438C3.67477 14.5858 5.4999 12.0209 7.51412 9.60379C9.524 7.19192 11.7738 4.86523 13.9718 3.12075C15.071 2.24835 16.1984 1.48863 17.3112 0.939396Z" fill="white"/>
</svg>
