<svg width="93" height="93" viewBox="0 0 93 93" fill="none" xmlns="http://www.w3.org/2000/svg">
<path d="M42.7218 81.375V73.0437C39.2989 72.2687 36.3442 70.7833 33.8577 68.5875C31.3713 66.3917 29.5468 63.2917 28.3843 59.2875L35.553 56.3812C36.5218 59.4812 37.9588 61.8385 39.864 63.4531C41.7692 65.0677 44.2718 65.875 47.3718 65.875C50.0197 65.875 52.264 65.2776 54.1046 64.0828C55.9452 62.888 56.8655 61.0312 56.8655 58.5125C56.8655 56.2521 56.1551 54.4599 54.7343 53.1359C53.3134 51.812 50.0197 50.3104 44.853 48.6312C39.2989 46.8875 35.4884 44.8047 33.4218 42.3828C31.3551 39.9609 30.3218 37.0062 30.3218 33.5187C30.3218 29.3208 31.678 26.0594 34.3905 23.7344C37.103 21.4094 39.8801 20.0854 42.7218 19.7625V11.625H50.4718V19.7625C53.7009 20.2792 56.365 21.4578 58.464 23.2984C60.5629 25.1391 62.0968 27.3833 63.0655 30.0312L55.8968 33.1312C55.1218 31.0646 54.0239 29.5146 52.603 28.4812C51.1822 27.4479 49.2447 26.9312 46.7905 26.9312C43.9489 26.9312 41.7853 27.5609 40.2999 28.8203C38.8145 30.0797 38.0718 31.6458 38.0718 33.5187C38.0718 35.65 39.0405 37.3292 40.978 38.5562C42.9155 39.7833 46.2739 41.075 51.053 42.4312C55.5093 43.7229 58.8838 45.7734 61.1765 48.5828C63.4692 51.3922 64.6155 54.6375 64.6155 58.3187C64.6155 62.9042 63.2593 66.3917 60.5468 68.7812C57.8343 71.1708 54.4759 72.6562 50.4718 73.2375V81.375H42.7218Z" fill="#253A45"/>
</svg>
