<svg width="50" height="50" viewBox="0 0 50 50" fill="none" xmlns="http://www.w3.org/2000/svg">
<path d="M37.9792 4.16669H12.0209C9.9378 4.16669 7.94006 4.99418 6.46712 6.46712C4.99418 7.94006 4.16669 9.9378 4.16669 12.0209V37.9792C4.16669 40.0622 4.99418 42.06 6.46712 43.5329C7.94006 45.0059 9.9378 45.8333 12.0209 45.8333H37.9792C40.0622 45.8333 42.06 45.0059 43.5329 43.5329C45.0059 42.06 45.8333 40.0622 45.8333 37.9792V12.0209C45.8333 9.9378 45.0059 7.94006 43.5329 6.46712C42.06 4.99418 40.0622 4.16669 37.9792 4.16669ZM41.6667 37.9792C41.6667 38.9572 41.2782 39.8951 40.5866 40.5866C39.8951 41.2782 38.9572 41.6667 37.9792 41.6667H12.0209C11.0429 41.6667 10.1049 41.2782 9.4134 40.5866C8.72186 39.8951 8.33335 38.9572 8.33335 37.9792V12.0209C8.33335 11.0429 8.72186 10.1049 9.4134 9.4134C10.1049 8.72186 11.0429 8.33335 12.0209 8.33335H37.9792C38.9572 8.33335 39.8951 8.72186 40.5866 9.4134C41.2782 10.1049 41.6667 11.0429 41.6667 12.0209V37.9792Z" fill="white"/>
<path d="M16.6667 22.9167H14.5833C14.0308 22.9167 13.5009 23.1362 13.1102 23.5269C12.7195 23.9176 12.5 24.4475 12.5 25C12.5 25.5526 12.7195 26.0825 13.1102 26.4732C13.5009 26.8639 14.0308 27.0834 14.5833 27.0834H16.6667C17.2192 27.0834 17.7491 26.8639 18.1398 26.4732C18.5305 26.0825 18.75 25.5526 18.75 25C18.75 24.4475 18.5305 23.9176 18.1398 23.5269C17.7491 23.1362 17.2192 22.9167 16.6667 22.9167Z" fill="white"/>
<path d="M16.6667 29.1667H14.5833C14.0308 29.1667 13.5009 29.3862 13.1102 29.7769C12.7195 30.1676 12.5 30.6975 12.5 31.25C12.5 31.8026 12.7195 32.3325 13.1102 32.7232C13.5009 33.1139 14.0308 33.3334 14.5833 33.3334H16.6667C17.2192 33.3334 17.7491 33.1139 18.1398 32.7232C18.5305 32.3325 18.75 31.8026 18.75 31.25C18.75 30.6975 18.5305 30.1676 18.1398 29.7769C17.7491 29.3862 17.2192 29.1667 16.6667 29.1667Z" fill="white"/>
<path d="M27.0833 22.9167H22.9166C22.3641 22.9167 21.8342 23.1362 21.4435 23.5269C21.0528 23.9176 20.8333 24.4475 20.8333 25C20.8333 25.5526 21.0528 26.0825 21.4435 26.4732C21.8342 26.8639 22.3641 27.0834 22.9166 27.0834H27.0833C27.6358 27.0834 28.1658 26.8639 28.5565 26.4732C28.9472 26.0825 29.1666 25.5526 29.1666 25C29.1666 24.4475 28.9472 23.9176 28.5565 23.5269C28.1658 23.1362 27.6358 22.9167 27.0833 22.9167Z" fill="white"/>
<path d="M27.0833 29.1667H22.9166C22.3641 29.1667 21.8342 29.3862 21.4435 29.7769C21.0528 30.1676 20.8333 30.6975 20.8333 31.25C20.8333 31.8026 21.0528 32.3325 21.4435 32.7232C21.8342 33.1139 22.3641 33.3334 22.9166 33.3334H27.0833C27.6358 33.3334 28.1658 33.1139 28.5565 32.7232C28.9472 32.3325 29.1666 31.8026 29.1666 31.25C29.1666 30.6975 28.9472 30.1676 28.5565 29.7769C28.1658 29.3862 27.6358 29.1667 27.0833 29.1667Z" fill="white"/>
<path d="M16.6667 35.4167H14.5833C14.0308 35.4167 13.5009 35.6362 13.1102 36.0269C12.7195 36.4176 12.5 36.9475 12.5 37.5C12.5 38.0526 12.7195 38.5825 13.1102 38.9732C13.5009 39.3639 14.0308 39.5834 14.5833 39.5834H16.6667C17.2192 39.5834 17.7491 39.3639 18.1398 38.9732C18.5305 38.5825 18.75 38.0526 18.75 37.5C18.75 36.9475 18.5305 36.4176 18.1398 36.0269C17.7491 35.6362 17.2192 35.4167 16.6667 35.4167Z" fill="white"/>
<path d="M27.0833 35.4167H22.9166C22.3641 35.4167 21.8342 35.6362 21.4435 36.0269C21.0528 36.4176 20.8333 36.9475 20.8333 37.5C20.8333 38.0526 21.0528 38.5825 21.4435 38.9732C21.8342 39.3639 22.3641 39.5834 22.9166 39.5834H27.0833C27.6358 39.5834 28.1658 39.3639 28.5565 38.9732C28.9472 38.5825 29.1666 38.0526 29.1666 37.5C29.1666 36.9475 28.9472 36.4176 28.5565 36.0269C28.1658 35.6362 27.6358 35.4167 27.0833 35.4167Z" fill="white"/>
<path d="M35.4167 22.9167H33.3333C32.7808 22.9167 32.2509 23.1362 31.8602 23.5269C31.4695 23.9176 31.25 24.4475 31.25 25C31.25 25.5526 31.4695 26.0825 31.8602 26.4732C32.2509 26.8639 32.7808 27.0834 33.3333 27.0834H35.4167C35.9692 27.0834 36.4991 26.8639 36.8898 26.4732C37.2805 26.0825 37.5 25.5526 37.5 25C37.5 24.4475 37.2805 23.9176 36.8898 23.5269C36.4991 23.1362 35.9692 22.9167 35.4167 22.9167Z" fill="white"/>
<path d="M37.5 10.4167H12.5C11.9475 10.4167 11.4176 10.6362 11.0269 11.0269C10.6362 11.4176 10.4167 11.9475 10.4167 12.5V18.75C10.4167 19.3026 10.6362 19.8325 11.0269 20.2232C11.4176 20.6139 11.9475 20.8334 12.5 20.8334H37.5C38.0526 20.8334 38.5825 20.6139 38.9732 20.2232C39.3639 19.8325 39.5833 19.3026 39.5833 18.75V12.5C39.5833 11.9475 39.3639 11.4176 38.9732 11.0269C38.5825 10.6362 38.0526 10.4167 37.5 10.4167ZM35.4167 16.6667H14.5834V14.5834H35.4167V16.6667Z" fill="white"/>
<path d="M35.4167 29.1667H33.3333C32.1827 29.1667 31.25 30.0994 31.25 31.25V37.5C31.25 38.6506 32.1827 39.5834 33.3333 39.5834H35.4167C36.5673 39.5834 37.5 38.6506 37.5 37.5V31.25C37.5 30.0994 36.5673 29.1667 35.4167 29.1667Z" fill="white"/>
<path d="M37.9792 4.16669H12.0209C9.9378 4.16669 7.94006 4.99418 6.46712 6.46712C4.99418 7.94006 4.16669 9.9378 4.16669 12.0209V37.9792C4.16669 40.0622 4.99418 42.06 6.46712 43.5329C7.94006 45.0059 9.9378 45.8333 12.0209 45.8333H37.9792C40.0622 45.8333 42.06 45.0059 43.5329 43.5329C45.0059 42.06 45.8333 40.0622 45.8333 37.9792V12.0209C45.8333 9.9378 45.0059 7.94006 43.5329 6.46712C42.06 4.99418 40.0622 4.16669 37.9792 4.16669ZM41.6667 37.9792C41.6667 38.9572 41.2782 39.8951 40.5866 40.5866C39.8951 41.2782 38.9572 41.6667 37.9792 41.6667H12.0209C11.0429 41.6667 10.1049 41.2782 9.4134 40.5866C8.72186 39.8951 8.33335 38.9572 8.33335 37.9792V12.0209C8.33335 11.0429 8.72186 10.1049 9.4134 9.4134C10.1049 8.72186 11.0429 8.33335 12.0209 8.33335H37.9792C38.9572 8.33335 39.8951 8.72186 40.5866 9.4134C41.2782 10.1049 41.6667 11.0429 41.6667 12.0209V37.9792Z" fill="white"/>
<path d="M37.5 10.4167H12.5C11.9475 10.4167 11.4176 10.6362 11.0269 11.0269C10.6362 11.4176 10.4167 11.9475 10.4167 12.5V18.75C10.4167 19.3026 10.6362 19.8325 11.0269 20.2232C11.4176 20.6139 11.9475 20.8334 12.5 20.8334H37.5C38.0526 20.8334 38.5825 20.6139 38.9732 20.2232C39.3639 19.8325 39.5833 19.3026 39.5833 18.75V12.5C39.5833 11.9475 39.3639 11.4176 38.9732 11.0269C38.5825 10.6362 38.0526 10.4167 37.5 10.4167ZM35.4167 16.6667H14.5834V14.5834H35.4167V16.6667Z" fill="white"/>
</svg>
