<svg width="50" height="50" viewBox="0 0 50 50" fill="none" xmlns="http://www.w3.org/2000/svg">
<g clip-path="url(#clip0_3036_424)">
<path d="M26.5625 31.25H23.4375V37.5H26.5625V31.25Z" fill="white"/>
<path d="M34.375 28.125H31.25V37.5H34.375V28.125Z" fill="white"/>
<path d="M18.75 21.875H15.625V37.5H18.75V21.875Z" fill="white"/>
<path d="M39.0625 7.8125H34.375V6.25C34.375 5.4212 34.0458 4.62634 33.4597 4.04029C32.8737 3.45424 32.0788 3.125 31.25 3.125H18.75C17.9212 3.125 17.1263 3.45424 16.5403 4.04029C15.9542 4.62634 15.625 5.4212 15.625 6.25V7.8125H10.9375C10.1087 7.8125 9.31384 8.14174 8.72779 8.72779C8.14174 9.31384 7.8125 10.1087 7.8125 10.9375V43.75C7.8125 44.5788 8.14174 45.3737 8.72779 45.9597C9.31384 46.5458 10.1087 46.875 10.9375 46.875H39.0625C39.8913 46.875 40.6862 46.5458 41.2722 45.9597C41.8583 45.3737 42.1875 44.5788 42.1875 43.75V10.9375C42.1875 10.1087 41.8583 9.31384 41.2722 8.72779C40.6862 8.14174 39.8913 7.8125 39.0625 7.8125ZM18.75 6.25H31.25V12.5H18.75V6.25ZM39.0625 43.75H10.9375V10.9375H15.625V15.625H34.375V10.9375H39.0625V43.75Z" fill="white"/>
<path d="M39.0625 7.8125H34.375V6.25C34.375 5.4212 34.0458 4.62634 33.4597 4.04029C32.8737 3.45424 32.0788 3.125 31.25 3.125H18.75C17.9212 3.125 17.1263 3.45424 16.5403 4.04029C15.9542 4.62634 15.625 5.4212 15.625 6.25V7.8125H10.9375C10.1087 7.8125 9.31384 8.14174 8.72779 8.72779C8.14174 9.31384 7.8125 10.1087 7.8125 10.9375V43.75C7.8125 44.5788 8.14174 45.3737 8.72779 45.9597C9.31384 46.5458 10.1087 46.875 10.9375 46.875H39.0625C39.8913 46.875 40.6862 46.5458 41.2722 45.9597C41.8583 45.3737 42.1875 44.5788 42.1875 43.75V10.9375C42.1875 10.1087 41.8583 9.31384 41.2722 8.72779C40.6862 8.14174 39.8913 7.8125 39.0625 7.8125ZM18.75 6.25H31.25V12.5H18.75V6.25ZM39.0625 43.75H10.9375V10.9375H15.625V15.625H34.375V10.9375H39.0625V43.75Z" fill="white"/>
</g>
<defs>
<clipPath id="clip0_3036_424">
<rect width="50" height="50" fill="white"/>
</clipPath>
</defs>
</svg>
