<svg width="18" height="18" viewBox="0 0 18 18" fill="none" xmlns="http://www.w3.org/2000/svg">
<path fill-rule="evenodd" clip-rule="evenodd" d="M13 0C14.1046 0 15 0.895431 15 2L15 3.12603C16.7253 3.57009 18 5.13618 18 7V14C18 16.2091 16.2091 18 14 18C11.9876 18 10.3223 16.5139 10.0416 14.5793C9.77188 14.8398 9.40465 15 9 15C8.59535 15 8.22812 14.8398 7.95831 14.5793C7.67772 16.5139 6.01241 18 4 18C1.79086 18 0 16.2091 0 14V7C0 5.13616 1.27477 3.57006 3 3.12602L3 2C3 0.895431 3.89543 0 5 0C6.10457 0 7 0.895431 7 2L7.00002 3.26758C7.44503 3.52501 7.78164 3.94898 7.92464 4.45427C8.19717 4.17405 8.57826 4 9 4C9.42174 4 9.80283 4.17405 10.0754 4.45424C10.2184 3.94897 10.555 3.52501 11 3.26758L11 2C11 0.895431 11.8954 0 13 0ZM4 12C2.89543 12 2 12.8954 2 14C2 15.1046 2.89543 16 4 16C5.10457 16 6 15.1046 6 14C6 12.8954 5.10457 12 4 12ZM14 12C12.8954 12 12 12.8954 12 14C12 15.1046 12.8954 16 14 16C15.1046 16 16 15.1046 16 14C16 12.8954 15.1046 12 14 12ZM9 6C8.6158 6 8.26534 6.14444 7.99996 6.38198L7.99995 12.382C8.26534 12.1444 8.6158 12 9 12C9.3842 12 9.73466 12.1444 10 12.382L10 6.38198C9.73466 6.14444 9.3842 6 9 6ZM6 5H4C2.94564 5 2.08183 5.81588 2.00549 6.85074L2 7L2 10.5351C2.58835 10.1948 3.27143 10 4 10C4.72859 10 5.41169 10.1948 6.00004 10.5352L6 5ZM14 5H12L12 10.5351C12.5883 10.1948 13.2714 10 14 10C14.7286 10 15.4117 10.1948 16 10.5352L16 7C16 5.94564 15.1841 5.08183 14.1493 5.00549L14 5Z" fill="black" fill-opacity="0.5"/>
</svg>