<svg width="50" height="50" viewBox="0 0 50 50" fill="none" xmlns="http://www.w3.org/2000/svg">
<g clip-path="url(#clip0_3036_371)">
<path d="M15.625 34.375C17.2826 34.375 18.8723 33.7165 20.0444 32.5444C21.2165 31.3723 21.875 29.7826 21.875 28.125C21.875 26.4674 21.2165 24.8777 20.0444 23.7056C18.8723 22.5335 17.2826 21.875 15.625 21.875C13.9674 21.875 12.3777 22.5335 11.2056 23.7056C10.0335 24.8777 9.375 26.4674 9.375 28.125C9.375 29.7826 10.0335 31.3723 11.2056 32.5444C12.3777 33.7165 13.9674 34.375 15.625 34.375ZM15.625 25C16.4538 25 17.2487 25.3292 17.8347 25.9153C18.4208 26.5013 18.75 27.2962 18.75 28.125C18.75 28.9538 18.4208 29.7487 17.8347 30.3347C17.2487 30.9208 16.4538 31.25 15.625 31.25C14.7962 31.25 14.0013 30.9208 13.4153 30.3347C12.8292 29.7487 12.5 28.9538 12.5 28.125C12.5 27.2962 12.8292 26.5013 13.4153 25.9153C14.0013 25.3292 14.7962 25 15.625 25ZM23.4375 37.5H7.8125C5.7405 37.5 3.75336 38.3231 2.28823 39.7882C0.8231 41.2534 0 43.2405 0 45.3125C0 46.5557 0.493863 47.748 1.37294 48.6271C2.25202 49.5061 3.4443 50 4.6875 50H26.5625C27.8057 50 28.998 49.5061 29.8771 48.6271C30.7561 47.748 31.25 46.5557 31.25 45.3125C31.25 43.2405 30.4269 41.2534 28.9618 39.7882C27.4966 38.3231 25.5095 37.5 23.4375 37.5ZM26.5625 46.875H4.6875C4.2731 46.875 3.87567 46.7104 3.58264 46.4174C3.28962 46.1243 3.125 45.7269 3.125 45.3125C3.125 44.0693 3.61886 42.877 4.49794 41.9979C5.37702 41.1189 6.5693 40.625 7.8125 40.625H23.4375C24.6807 40.625 25.873 41.1189 26.7521 41.9979C27.6311 42.877 28.125 44.0693 28.125 45.3125C28.125 45.7269 27.9604 46.1243 27.6674 46.4174C27.3743 46.7104 26.9769 46.875 26.5625 46.875ZM50 7.8125V23.4375C50 25.5095 49.1769 27.4966 47.7118 28.9618C46.2466 30.4269 44.2595 31.25 42.1875 31.25H33.4594L27.6688 37.0438C27.5234 37.1888 27.3508 37.3037 27.161 37.382C26.9712 37.4603 26.7678 37.5004 26.5625 37.5C26.3576 37.5008 26.1546 37.4604 25.9656 37.3812C25.6799 37.2631 25.4356 37.0629 25.2637 36.8059C25.0918 36.5489 25 36.2467 25 35.9375V29.6875C25 29.2731 25.1646 28.8757 25.4576 28.5826C25.7507 28.2896 26.1481 28.125 26.5625 28.125C26.9769 28.125 27.3743 28.2896 27.6674 28.5826C27.9604 28.8757 28.125 29.2731 28.125 29.6875V32.1656L31.7062 28.5812C31.8516 28.4362 32.0242 28.3213 32.214 28.243C32.4038 28.1647 32.6072 28.1246 32.8125 28.125H42.1875C43.4307 28.125 44.623 27.6311 45.5021 26.7521C46.3811 25.873 46.875 24.6807 46.875 23.4375V7.8125C46.875 6.5693 46.3811 5.37701 45.5021 4.49794C44.623 3.61886 43.4307 3.125 42.1875 3.125H20.3125C19.0693 3.125 17.877 3.61886 16.9979 4.49794C16.1189 5.37701 15.625 6.5693 15.625 7.8125V17.1875C15.625 17.6019 15.4604 17.9993 15.1674 18.2924C14.8743 18.5854 14.4769 18.75 14.0625 18.75C13.6481 18.75 13.2507 18.5854 12.9576 18.2924C12.6646 17.9993 12.5 17.6019 12.5 17.1875V7.8125C12.5 5.7405 13.3231 3.75336 14.7882 2.28823C16.2534 0.8231 18.2405 0 20.3125 0L42.1875 0C44.2595 0 46.2466 0.8231 47.7118 2.28823C49.1769 3.75336 50 5.7405 50 7.8125ZM32.8125 6.25V14.0625H40.625C41.0394 14.0625 41.4368 14.2271 41.7299 14.5201C42.0229 14.8132 42.1875 15.2106 42.1875 15.625C42.1875 16.0394 42.0229 16.4368 41.7299 16.7299C41.4368 17.0229 41.0394 17.1875 40.625 17.1875H32.8125V25C32.8125 25.4144 32.6479 25.8118 32.3549 26.1049C32.0618 26.3979 31.6644 26.5625 31.25 26.5625C30.8356 26.5625 30.4382 26.3979 30.1451 26.1049C29.8521 25.8118 29.6875 25.4144 29.6875 25V17.1875H21.875C21.4606 17.1875 21.0632 17.0229 20.7701 16.7299C20.4771 16.4368 20.3125 16.0394 20.3125 15.625C20.3125 15.2106 20.4771 14.8132 20.7701 14.5201C21.0632 14.2271 21.4606 14.0625 21.875 14.0625H29.6875V6.25C29.6875 5.8356 29.8521 5.43817 30.1451 5.14515C30.4382 4.85212 30.8356 4.6875 31.25 4.6875C31.6644 4.6875 32.0618 4.85212 32.3549 5.14515C32.6479 5.43817 32.8125 5.8356 32.8125 6.25Z" fill="white"/>
<path d="M15.625 34.375C17.2826 34.375 18.8723 33.7165 20.0444 32.5444C21.2165 31.3723 21.875 29.7826 21.875 28.125C21.875 26.4674 21.2165 24.8777 20.0444 23.7056C18.8723 22.5335 17.2826 21.875 15.625 21.875C13.9674 21.875 12.3777 22.5335 11.2056 23.7056C10.0335 24.8777 9.375 26.4674 9.375 28.125C9.375 29.7826 10.0335 31.3723 11.2056 32.5444C12.3777 33.7165 13.9674 34.375 15.625 34.375ZM15.625 25C16.4538 25 17.2487 25.3292 17.8347 25.9153C18.4208 26.5013 18.75 27.2962 18.75 28.125C18.75 28.9538 18.4208 29.7487 17.8347 30.3347C17.2487 30.9208 16.4538 31.25 15.625 31.25C14.7962 31.25 14.0013 30.9208 13.4153 30.3347C12.8292 29.7487 12.5 28.9538 12.5 28.125C12.5 27.2962 12.8292 26.5013 13.4153 25.9153C14.0013 25.3292 14.7962 25 15.625 25ZM23.4375 37.5H7.8125C5.7405 37.5 3.75336 38.3231 2.28823 39.7882C0.8231 41.2534 0 43.2405 0 45.3125C0 46.5557 0.493863 47.748 1.37294 48.6271C2.25202 49.5061 3.4443 50 4.6875 50H26.5625C27.8057 50 28.998 49.5061 29.8771 48.6271C30.7561 47.748 31.25 46.5557 31.25 45.3125C31.25 43.2405 30.4269 41.2534 28.9618 39.7882C27.4966 38.3231 25.5095 37.5 23.4375 37.5ZM26.5625 46.875H4.6875C4.2731 46.875 3.87567 46.7104 3.58264 46.4174C3.28962 46.1243 3.125 45.7269 3.125 45.3125C3.125 44.0693 3.61886 42.877 4.49794 41.9979C5.37702 41.1189 6.5693 40.625 7.8125 40.625H23.4375C24.6807 40.625 25.873 41.1189 26.7521 41.9979C27.6311 42.877 28.125 44.0693 28.125 45.3125C28.125 45.7269 27.9604 46.1243 27.6674 46.4174C27.3743 46.7104 26.9769 46.875 26.5625 46.875ZM50 7.8125V23.4375C50 25.5095 49.1769 27.4966 47.7118 28.9618C46.2466 30.4269 44.2595 31.25 42.1875 31.25H33.4594L27.6688 37.0438C27.5234 37.1888 27.3508 37.3037 27.161 37.382C26.9712 37.4603 26.7678 37.5004 26.5625 37.5C26.3576 37.5008 26.1546 37.4604 25.9656 37.3812C25.6799 37.2631 25.4356 37.0629 25.2637 36.8059C25.0918 36.5489 25 36.2467 25 35.9375V29.6875C25 29.2731 25.1646 28.8757 25.4576 28.5826C25.7507 28.2896 26.1481 28.125 26.5625 28.125C26.9769 28.125 27.3743 28.2896 27.6674 28.5826C27.9604 28.8757 28.125 29.2731 28.125 29.6875V32.1656L31.7062 28.5812C31.8516 28.4362 32.0242 28.3213 32.214 28.243C32.4038 28.1647 32.6072 28.1246 32.8125 28.125H42.1875C43.4307 28.125 44.623 27.6311 45.5021 26.7521C46.3811 25.873 46.875 24.6807 46.875 23.4375V7.8125C46.875 6.5693 46.3811 5.37701 45.5021 4.49794C44.623 3.61886 43.4307 3.125 42.1875 3.125H20.3125C19.0693 3.125 17.877 3.61886 16.9979 4.49794C16.1189 5.37701 15.625 6.5693 15.625 7.8125V17.1875C15.625 17.6019 15.4604 17.9993 15.1674 18.2924C14.8743 18.5854 14.4769 18.75 14.0625 18.75C13.6481 18.75 13.2507 18.5854 12.9576 18.2924C12.6646 17.9993 12.5 17.6019 12.5 17.1875V7.8125C12.5 5.7405 13.3231 3.75336 14.7882 2.28823C16.2534 0.8231 18.2405 0 20.3125 0L42.1875 0C44.2595 0 46.2466 0.8231 47.7118 2.28823C49.1769 3.75336 50 5.7405 50 7.8125ZM32.8125 6.25V14.0625H40.625C41.0394 14.0625 41.4368 14.2271 41.7299 14.5201C42.0229 14.8132 42.1875 15.2106 42.1875 15.625C42.1875 16.0394 42.0229 16.4368 41.7299 16.7299C41.4368 17.0229 41.0394 17.1875 40.625 17.1875H32.8125V25C32.8125 25.4144 32.6479 25.8118 32.3549 26.1049C32.0618 26.3979 31.6644 26.5625 31.25 26.5625C30.8356 26.5625 30.4382 26.3979 30.1451 26.1049C29.8521 25.8118 29.6875 25.4144 29.6875 25V17.1875H21.875C21.4606 17.1875 21.0632 17.0229 20.7701 16.7299C20.4771 16.4368 20.3125 16.0394 20.3125 15.625C20.3125 15.2106 20.4771 14.8132 20.7701 14.5201C21.0632 14.2271 21.4606 14.0625 21.875 14.0625H29.6875V6.25C29.6875 5.8356 29.8521 5.43817 30.1451 5.14515C30.4382 4.85212 30.8356 4.6875 31.25 4.6875C31.6644 4.6875 32.0618 4.85212 32.3549 5.14515C32.6479 5.43817 32.8125 5.8356 32.8125 6.25Z" fill="white"/>
</g>
<defs>
<clipPath id="clip0_3036_371">
<rect width="50" height="50" fill="white"/>
</clipPath>
</defs>
</svg>
